<svg xmlns="http://www.w3.org/2000/svg" width="1200" height="630" viewBox="0 0 1200 630" role="img" aria-labelledby="title desc">
  <title id="title">Micirql independent software company</title>
  <desc id="desc">Editorial Micirql social card presenting Android software built for real operational work.</desc>
  <rect width="1200" height="630" fill="#F2EFE8"/>
  <path d="M70 0V630M714 0V630M0 92H1200M0 544H1200" stroke="#D7D3CA"/>
  <rect x="70" y="24" width="48" height="48" rx="7" fill="#111216"/>
  <path d="M78 60V42L89 33L100 42V52L89 44V60H78Z" fill="#2F5BFF"/>
  <path d="M92 59V48L103 39L112 46V59L103 52V47L92 55V59Z" fill="#F2EFE8"/>
  <rect x="106" y="31" width="6" height="6" fill="#F0642B"/>
  <text x="136" y="57" font-family="Arial,Helvetica,sans-serif" font-size="22" font-weight="700" letter-spacing="3" fill="#111216">MICIRQL</text>
  <text x="70" y="196" font-family="Arial,Helvetica,sans-serif" font-size="68" font-weight="700" letter-spacing="-4" fill="#111216">Android software that</text>
  <text x="70" y="270" font-family="Georgia,Times New Roman,serif" font-size="72" font-style="italic" fill="#2F5BFF">outlives the launch.</text>
  <text x="70" y="331" font-family="Arial,Helvetica,sans-serif" font-size="22" fill="#676A73">Focused products for overlooked operational problems.</text>
  <text x="70" y="489" font-family="Consolas,monospace" font-size="12" font-weight="700" letter-spacing="2" fill="#F0642B">PRODUCT 01 · LIVE</text>
  <text x="70" y="527" font-family="Arial,Helvetica,sans-serif" font-size="27" font-weight="700" fill="#111216">CapDent</text>
  <rect x="754" y="124" width="376" height="382" fill="#FBFAF6" stroke="#111216" stroke-width="2"/>
  <text x="780" y="157" font-family="Consolas,monospace" font-size="10" letter-spacing="1.7" fill="#676A73">MICIRQL / SHIPPING RECORD</text>
  <line x1="754" y1="180" x2="1130" y2="180" stroke="#111216"/>
  <rect x="754" y="180" width="5" height="105" fill="#2F5BFF"/>
  <text x="780" y="211" font-family="Consolas,monospace" font-size="10" fill="#2F5BFF">01 · LIVE PRODUCT</text>
  <text x="780" y="247" font-family="Arial,Helvetica,sans-serif" font-size="27" font-weight="700" fill="#111216">CapDent</text>
  <text x="780" y="270" font-family="Arial,Helvetica,sans-serif" font-size="12" fill="#676A73">Dental clinic operations</text>
  <line x1="754" y1="285" x2="1130" y2="285" stroke="#D7D3CA"/>
  <text x="780" y="320" font-family="Consolas,monospace" font-size="10" fill="#676A73">02 · PRIVATE DEVELOPMENT</text>
  <text x="780" y="356" font-family="Arial,Helvetica,sans-serif" font-size="23" font-weight="700" fill="#111216">Operational software</text>
  <line x1="754" y1="390" x2="1130" y2="390" stroke="#D7D3CA"/>
  <rect x="754" y="390" width="5" height="116" fill="#F0642B"/>
  <text x="780" y="426" font-family="Consolas,monospace" font-size="10" fill="#F0642B">03 · PORTFOLIO SPACE</text>
  <text x="780" y="462" font-family="Arial,Helvetica,sans-serif" font-size="23" font-weight="700" fill="#111216">The next useful product</text>
  <text x="70" y="584" font-family="Consolas,monospace" font-size="11" letter-spacing="1.5" fill="#676A73">FOUNDER-LED · ANDROID-FIRST · INDIA</text>
</svg>
