<svg xmlns="http://www.w3.org/2000/svg" width="1200" height="630" viewBox="0 0 1200 630" role="img" aria-labelledby="title desc"><title id="title">Micirql product engineering and business systems</title><desc id="desc">Corporate Micirql social card showing the company positioning and CapDent as a flagship product.</desc><rect width="1200" height="630" fill="#f5f7f6"/><rect x="58" y="54" width="1084" height="522" rx="24" fill="#fff" stroke="#d9e1de" stroke-width="2"/><rect x="96" y="92" width="58" height="58" rx="14" fill="#12363e"/><circle cx="125" cy="121" r="16" fill="none" stroke="#67b8ad" stroke-width="4"/><path d="M113 132V110l12 13 12-13v22" fill="none" stroke="#fff" stroke-width="4" stroke-linecap="round" stroke-linejoin="round"/><text x="172" y="132" font-family="Arial,Helvetica,sans-serif" font-size="30" font-weight="700" fill="#12363e">Micirql</text><text x="96" y="254" font-family="Arial,Helvetica,sans-serif" font-size="62" font-weight="700" letter-spacing="-2.5" fill="#12363e">Software built around</text><text x="96" y="324" font-family="Arial,Helvetica,sans-serif" font-size="62" font-weight="700" letter-spacing="-2.5" fill="#0f766e">real business workflows.</text><text x="96" y="380" font-family="Arial,Helvetica,sans-serif" font-size="23" fill="#65787d">Products · Operational systems · Dashboards · Digital platforms</text><rect x="96" y="432" width="288" height="70" rx="12" fill="#edf5f3" stroke="#c9ddd8"/><text x="118" y="458" font-family="Arial,Helvetica,sans-serif" font-size="12" font-weight="700" letter-spacing="1.2" fill="#0f766e">FLAGSHIP PRODUCT</text><text x="118" y="486" font-family="Arial,Helvetica,sans-serif" font-size="24" font-weight="700" fill="#12363e">CapDent</text><rect x="756" y="112" width="330" height="390" rx="20" fill="#f6f8f7" stroke="#d9e1de"/><text x="786" y="152" font-family="Arial,Helvetica,sans-serif" font-size="12" font-weight="700" letter-spacing="1.2" fill="#718489">MICIRQL / OPERATING MODEL</text><rect x="786" y="180" width="270" height="76" rx="12" fill="#12363e"/><text x="808" y="207" font-family="Arial,Helvetica,sans-serif" font-size="11" fill="#9fcfc8">01 · DISCOVER</text><text x="808" y="236" font-family="Arial,Helvetica,sans-serif" font-size="20" font-weight="700" fill="#fff">Understand the workflow</text><rect x="786" y="270" width="270" height="76" rx="12" fill="#fff" stroke="#d9e1de"/><text x="808" y="297" font-family="Arial,Helvetica,sans-serif" font-size="11" fill="#0f766e">02 · DESIGN</text><text x="808" y="326" font-family="Arial,Helvetica,sans-serif" font-size="20" font-weight="700" fill="#12363e">Shape the useful system</text><rect x="786" y="360" width="270" height="76" rx="12" fill="#fff" stroke="#d9e1de"/><text x="808" y="387" font-family="Arial,Helvetica,sans-serif" font-size="11" fill="#0f766e">03 · BUILD</text><text x="808" y="416" font-family="Arial,Helvetica,sans-serif" font-size="20" font-weight="700" fill="#12363e">Ship and improve</text><text x="96" y="544" font-family="Arial,Helvetica,sans-serif" font-size="14" fill="#718489">Founder-led product and engineering company · India</text></svg>