<svg xmlns="http://www.w3.org/2000/svg" width="1200" height="630" viewBox="0 0 1200 630" role="img" aria-labelledby="title desc">
  <title id="title">Micirql Android software company</title>
  <desc id="desc">Dark corporate Micirql social card with its geometric mark and product portfolio.</desc>
  <rect width="1200" height="630" fill="#0B0D12"/>
  <rect x="58" y="54" width="1084" height="522" fill="#11141B" stroke="#2B303C" stroke-width="2"/>
  <rect x="94" y="90" width="64" height="64" rx="14" fill="#11141A" stroke="#343947"/>
  <path d="M105 137V112L118 102L131 112V125L118 115V137H105Z" fill="#6268FF"/>
  <path d="M122 135V121L135 111L147 120V135L135 126V121L122 131V135Z" fill="#F5F3EE"/>
  <rect x="140" y="100" width="8" height="8" rx="2" fill="#FFB45B"/>
  <text x="180" y="135" font-family="Segoe UI,Arial,sans-serif" font-size="32" font-weight="700" fill="#F5F3EE">Micirql</text>
  <text x="94" y="254" font-family="Segoe UI,Arial,sans-serif" font-size="62" font-weight="700" letter-spacing="-3" fill="#F5F3EE">Android software with</text>
  <text x="94" y="326" font-family="Segoe UI,Arial,sans-serif" font-size="62" font-weight="700" letter-spacing="-3" fill="#FFB45B">a longer horizon.</text>
  <text x="94" y="382" font-family="Segoe UI,Arial,sans-serif" font-size="22" fill="#9CA3B1">Focused products · Operational systems · Product websites</text>
  <rect x="94" y="438" width="310" height="78" fill="#171B24" stroke="#343947"/>
  <rect x="94" y="438" width="5" height="78" fill="#6268FF"/>
  <text x="118" y="465" font-family="Segoe UI,Arial,sans-serif" font-size="11" font-weight="700" letter-spacing="1.4" fill="#8F96FF">01 · LIVE PRODUCT</text>
  <text x="118" y="496" font-family="Segoe UI,Arial,sans-serif" font-size="25" font-weight="700" fill="#F5F3EE">CapDent</text>
  <rect x="736" y="102" width="352" height="414" fill="#0E1117" stroke="#303643"/>
  <text x="766" y="142" font-family="Segoe UI,Arial,sans-serif" font-size="11" font-weight="700" letter-spacing="1.4" fill="#777F90">MICIRQL / PRODUCT LEDGER</text>
  <rect x="766" y="172" width="292" height="90" fill="#161A24"/>
  <rect x="766" y="172" width="4" height="90" fill="#6268FF"/>
  <text x="790" y="202" font-family="Segoe UI,Arial,sans-serif" font-size="10" fill="#8F96FF">01 · LIVE</text>
  <text x="790" y="236" font-family="Segoe UI,Arial,sans-serif" font-size="24" font-weight="700" fill="#F5F3EE">CapDent</text>
  <rect x="766" y="280" width="292" height="90" fill="#131720"/>
  <rect x="766" y="280" width="4" height="90" fill="#343947"/>
  <text x="790" y="310" font-family="Segoe UI,Arial,sans-serif" font-size="10" fill="#747D8D">02 · IN DEVELOPMENT</text>
  <text x="790" y="344" font-family="Segoe UI,Arial,sans-serif" font-size="20" font-weight="700" fill="#BFC5D0">Operational product</text>
  <rect x="766" y="388" width="292" height="90" fill="#131720"/>
  <rect x="766" y="388" width="4" height="90" fill="#FFB45B"/>
  <text x="790" y="418" font-family="Segoe UI,Arial,sans-serif" font-size="10" fill="#C38D50">03 · RESERVED</text>
  <text x="790" y="452" font-family="Segoe UI,Arial,sans-serif" font-size="20" font-weight="700" fill="#BFC5D0">Future Android product</text>
  <text x="94" y="552" font-family="Segoe UI,Arial,sans-serif" font-size="14" fill="#717A8A">Founder-led · Android-first · India</text>
</svg>
