<svg width="520" height="140" viewBox="0 0 520 140" fill="none" xmlns="http://www.w3.org/2000/svg" role="img" aria-labelledby="title desc">
  <title id="title">Micirql logo</title>
  <desc id="desc">Micirql technology company logo with circular connected M mark and wordmark.</desc>
  <defs>
    <linearGradient id="ring" x1="22" y1="24" x2="136" y2="128" gradientUnits="userSpaceOnUse">
      <stop offset="0" stop-color="#22D3EE"/>
      <stop offset="0.52" stop-color="#3B82F6"/>
      <stop offset="1" stop-color="#8B5CF6"/>
    </linearGradient>
    <linearGradient id="accent" x1="58" y1="83" x2="106" y2="104" gradientUnits="userSpaceOnUse">
      <stop stop-color="#22D3EE"/>
      <stop offset="1" stop-color="#8B5CF6"/>
    </linearGradient>
    <filter id="glow" x="-20" y="-20" width="180" height="180" filterUnits="userSpaceOnUse" color-interpolation-filters="sRGB">
      <feGaussianBlur stdDeviation="3" result="blur"/>
      <feColorMatrix in="blur" type="matrix" values="0 0 0 0 0.133 0 0 0 0 0.827 0 0 0 0 0.933 0 0 0 0.36 0"/>
      <feBlend in="SourceGraphic" mode="normal"/>
    </filter>
  </defs>
  <rect width="520" height="140" rx="28" fill="#020617"/>
  <g filter="url(#glow)">
    <circle cx="76" cy="70" r="49" stroke="url(#ring)" stroke-width="7"/>
    <circle cx="76" cy="21" r="11" fill="#020617" stroke="#22D3EE" stroke-width="7"/>
    <circle cx="27" cy="70" r="11" fill="#020617" stroke="#22D3EE" stroke-width="7"/>
    <circle cx="76" cy="119" r="11" fill="#020617" stroke="#8B5CF6" stroke-width="7"/>
    <path d="M47 94V47L76 78L105 47V94H92V77L76 96L60 77V94H47Z" fill="#F8FAFC"/>
    <path d="M58 80L76 98L95 80V96L76 112L58 96V80Z" fill="url(#accent)"/>
  </g>
  <g fill="#F8FAFC">
    <path d="M171 96V43H187L210 73L233 43H249V96H234V65L212 94H208L186 65V96H171Z"/>
    <path d="M267 96V58H282V96H267Z"/>
    <path d="M327 98C315 98 305 94 298 87C291 80 287 72 287 61C287 50 291 41 298 35C305 28 315 25 327 25C336 25 344 27 351 32V47C345 42 337 39 329 39C321 39 315 41 310 45C305 49 303 55 303 62C303 68 305 74 310 78C315 82 321 84 329 84C338 84 346 81 352 76V91C345 96 336 98 327 98Z"/>
    <path d="M363 96V58H378V96H363Z"/>
    <path d="M389 96V58H403V65C407 60 413 57 421 57C422 57 424 57 426 58V72C423 71 421 71 418 71C409 71 404 76 404 86V96H389Z"/>
    <path d="M465 96L456 85C452 87 447 88 442 88C433 88 426 85 420 80C415 74 412 67 412 58C412 49 415 41 420 36C426 30 433 27 442 27C451 27 458 30 464 36C469 41 472 49 472 58C472 66 470 73 465 78L479 96H465ZM442 75C447 75 451 73 454 70C457 67 458 63 458 58C458 53 457 49 454 46C451 43 447 41 442 41C437 41 433 43 430 46C427 49 426 53 426 58C426 63 427 67 430 70C433 73 437 75 442 75Z"/>
    <path d="M489 96V33H504V96H489Z"/>
  </g>
  <circle cx="274.5" cy="45" r="6" fill="#22D3EE"/>
  <circle cx="370.5" cy="45" r="6" fill="#8B5CF6"/>
</svg>
